<?xml version="1.0" standalone="no"?>
<!DOCTYPE svg PUBLIC "-//W3C//DTD SVG 20010904//EN"
 "http://www.w3.org/TR/2001/REC-SVG-20010904/DTD/svg10.dtd">
<svg version="1.0" xmlns="http://www.w3.org/2000/svg"
 width="512.000000pt" height="512.000000pt" viewBox="0 0 512.000000 512.000000"
 preserveAspectRatio="xMidYMid meet">

<g transform="translate(0.000000,512.000000) scale(0.100000,-0.100000)"
fill="#000000" stroke="none">
<path d="M2600 4327 c-20 -10 -26 -22 -30 -62 l-5 -50 -455 -3 -455 -2 -121
-121 c-115 -115 -121 -119 -148 -109 -47 18 -119 12 -167 -13 -147 -78 -145
-293 3 -368 44 -23 126 -28 169 -11 40 16 88 61 109 103 21 40 26 126 10 164
-7 17 9 37 93 123 l102 102 433 0 433 0 -3 -52 -3 -53 -45 -3 c-25 -2 -53 -10
-62 -19 -9 -8 -29 -55 -44 -105 -17 -54 -34 -92 -43 -95 -9 -3 -44 -18 -79
-34 l-63 -29 -89 45 c-49 25 -97 45 -106 45 -22 0 -233 -208 -240 -236 -4 -14
11 -54 40 -112 25 -51 46 -94 46 -97 0 -3 -229 -5 -508 -5 l-508 0 -26 28
c-19 20 -24 32 -18 47 15 35 11 124 -6 158 -40 78 -103 117 -191 117 -113 0
-194 -78 -201 -193 -4 -77 24 -138 86 -181 46 -33 130 -46 180 -28 27 9 33 7
58 -20 58 -60 39 -58 581 -58 292 0 493 -4 487 -9 -5 -5 -48 -21 -96 -35 -58
-18 -92 -34 -103 -48 -12 -18 -15 -53 -15 -169 0 -177 -1 -176 120 -214 47
-15 89 -31 95 -36 5 -5 -188 -9 -453 -9 l-463 0 -47 -44 c-35 -33 -52 -42 -62
-36 -8 6 -41 10 -73 10 -131 0 -216 -94 -205 -226 16 -188 264 -252 372 -96
24 33 31 56 34 106 2 35 -1 72 -6 83 -9 17 -6 25 16 47 l28 26 462 0 c254 0
462 -2 462 -5 0 -3 -20 -46 -45 -95 -25 -49 -45 -97 -45 -106 0 -22 208 -233
236 -240 14 -4 54 11 112 40 l91 46 53 -24 c29 -12 64 -27 78 -33 21 -9 31
-28 55 -103 33 -103 49 -120 112 -120 l43 0 0 -55 0 -55 -433 0 -432 0 -102
103 c-84 85 -100 105 -93 122 16 38 11 124 -9 164 -81 158 -294 154 -376 -8
-26 -52 -17 -147 19 -200 51 -73 154 -108 236 -80 l32 12 122 -122 121 -121
455 -2 455 -3 5 -62 c3 -34 10 -66 15 -71 12 -10 1159 -724 1192 -741 26 -13
67 0 81 26 5 10 81 213 167 451 l158 432 239 0 c225 0 239 1 258 20 11 11 20
31 20 45 0 16 -89 159 -250 400 l-250 375 0 247 c0 167 -5 279 -15 343 -82
539 -439 989 -905 1144 -172 57 -236 66 -457 66 -139 0 -205 -4 -223 -13z
m565 -151 c369 -111 657 -380 805 -750 83 -207 100 -318 100 -658 l0 -263 220
-330 c121 -181 220 -333 220 -337 0 -5 -90 -8 -199 -8 -197 0 -200 0 -218 -23
-10 -13 -85 -208 -167 -433 -81 -225 -151 -412 -155 -416 -4 -4 -247 142 -541
325 l-535 333 -3 147 -3 147 44 0 c63 0 79 17 112 120 24 75 34 94 55 103 14
6 49 21 78 33 l53 24 91 -46 c58 -29 98 -44 112 -40 28 7 236 218 236 240 0 9
-20 56 -44 105 l-45 89 34 78 34 79 92 30 c50 17 97 39 105 50 10 14 14 56 14
166 0 179 0 178 -123 217 l-88 28 -34 78 -34 78 45 91 c29 57 44 97 40 111 -7
28 -218 236 -240 236 -9 0 -57 -20 -106 -45 l-89 -45 -63 29 c-35 16 -70 31
-79 34 -9 3 -26 41 -43 95 -15 50 -35 97 -44 105 -9 9 -37 17 -62 19 l-45 3
-3 104 c-1 58 0 111 3 119 4 12 37 13 193 10 167 -4 197 -8 277 -32z m-1798
-338 c41 -38 27 -108 -25 -126 -34 -12 -85 6 -96 33 -31 82 58 152 121 93z
m1375 -88 c29 -87 44 -107 88 -116 14 -3 65 -24 113 -47 l88 -41 90 44 89 44
57 -57 57 -57 -44 -89 -43 -90 41 -90 c23 -49 42 -95 42 -101 0 -6 7 -24 15
-40 13 -25 29 -34 105 -57 l90 -28 -2 -84 -3 -84 -84 -28 c-98 -33 -108 -40
-116 -82 -4 -18 -25 -72 -48 -120 l-40 -88 43 -90 44 -89 -57 -57 -57 -57 -89
44 -90 44 -78 -36 c-43 -20 -97 -42 -121 -49 -23 -7 -47 -18 -52 -25 -6 -6
-23 -49 -39 -95 l-28 -84 -83 0 -83 0 -28 84 c-16 46 -33 89 -39 95 -5 7 -29
18 -52 25 -24 7 -78 29 -121 49 l-78 36 -90 -44 -89 -44 -57 57 -57 57 44 89
43 90 -40 88 c-23 48 -44 102 -48 120 -8 42 -18 49 -116 82 l-84 28 -3 84 -2
84 90 28 c76 23 92 32 105 57 8 16 15 34 15 40 0 6 19 52 42 101 l41 90 -43
90 -44 89 57 57 57 57 89 -44 90 -44 88 42 c49 23 94 42 101 42 7 0 26 7 42
15 23 12 33 30 55 97 15 46 30 87 32 91 3 4 41 6 85 5 l81 -3 29 -85z m-2062
-220 c12 -12 20 -33 20 -55 0 -68 -77 -101 -127 -53 -50 47 -17 128 52 128 22
0 43 -8 55 -20z m90 -1070 c12 -12 20 -33 20 -55 0 -68 -77 -101 -127 -53 -50
47 -17 128 52 128 22 0 43 -8 55 -20z m603 -312 c26 -31 22 -82 -9 -107 -15
-12 -37 -21 -49 -21 -12 0 -34 9 -49 21 -28 22 -35 64 -15 100 22 42 89 46
122 7z"/>
<path d="M2510 3364 c-215 -58 -361 -299 -310 -515 54 -231 273 -380 500 -341
290 50 451 355 326 619 -93 196 -306 293 -516 237z m220 -131 c65 -21 142 -89
178 -157 23 -44 27 -63 27 -136 0 -73 -4 -92 -27 -135 -59 -111 -154 -170
-278 -170 -124 0 -219 59 -278 170 -23 43 -27 62 -27 135 0 73 4 92 27 136 35
66 113 136 175 157 63 21 138 21 203 0z"/>
</g>
</svg>
